<?xml version="1.0" encoding="utf-8"?>
<!-- Generator: Adobe Illustrator 25.2.0, SVG Export Plug-In . SVG Version: 6.00 Build 0)  -->
<svg version="1.1" id="Layer_1" xmlns="http://www.w3.org/2000/svg" xmlns:xlink="http://www.w3.org/1999/xlink" x="0px" y="0px" viewBox="0 0 162.1 162.1" style="enable-background:new 0 0 162.1 162.1;" xml:space="preserve">

	<g>
		<polygon class="st0" points="33.6,120.9 33.6,124.9 33.6,128.9 73.3,128.9 113,128.9 113,124.9 113,120.9 73.3,120.9 	" />
		<polygon class="st0" points="73.8,115.9 73.8,110.7 73.8,105.4 66.8,105.4 59.8,105.4 59.8,81.2 59.8,57 66.8,57 73.8,57 
		73.8,51.8 73.8,46.5 53.8,46.5 33.9,46.5 33.9,51.8 33.9,57 40.8,57 47.8,57 47.8,81.2 47.8,105.4 40.8,105.4 33.9,105.4 
		33.9,110.7 33.9,115.9 53.8,115.9 	" />
		<polygon class="st0" points="99.1,104.8 99.1,75.7 99.1,46.5 93.2,46.5 87.4,46.5 87.4,81.2 87.4,115.9 108,115.9 128.5,115.9 
		128.5,110.3 128.5,104.8 113.8,104.8 	" />
		<path class="st0" fill="#FFFFFF" d="M81,0H0v81v81h81h81V81V0H81z M33.9,110.7v-5.2h7h7V81.2V57h-7h-7v-5.2v-5.2h19.9h19.9v5.2V57h-7h-7v24.2v24.2
		h7h7v5.2v5.2H53.8H33.9V110.7z M113,124.9v4H73.3H33.6v-4v-4h39.7H113V124.9z M128.5,110.3v5.5H108H87.4V81.2V46.5h5.9h5.9v29.1
		v29.1h14.7h14.7V110.3z" />
	</g>
</svg>