<?xml version="1.0" standalone="no"?>
<!DOCTYPE svg PUBLIC "-//W3C//DTD SVG 20010904//EN" "http://www.w3.org/TR/2001/REC-SVG-20010904/DTD/svg10.dtd">
<svg version="1.0" xmlns="http://www.w3.org/2000/svg" width="512.000000pt" height="512.000000pt" viewBox="0 0 512.000000 512.000000" preserveAspectRatio="xMidYMid meet">

    <g transform="translate(0.000000,512.000000) scale(0.100000,-0.100000)" fill="#ffffff" stroke="none">
        <path d="M0 2560 l0 -2560 2560 0 2560 0 0 2560 0 2560 -2560 0 -2560 0 0
-2560z m2330 925 l0 -165 -220 0 -220 0 0 -765 0 -765 220 0 220 0 0 -165 0
-165 -630 0 -630 0 0 165 0 165 220 0 220 0 0 765 0 765 -220 0 -220 0 0 165
0 165 630 0 630 0 0 -165z m800 -755 l0 -920 465 0 465 0 0 -175 0 -175 -650
0 -650 0 0 1095 0 1095 185 0 185 0 0 -920z m440 -1555 l0 -125 -1255 0 -1255
0 0 125 0 125 1255 0 1255 0 0 -125z" />
    </g>
</svg>